<svg xmlns="http://www.w3.org/2000/svg" viewBox="0 0 64 64">
  <rect width="64" height="64" rx="12" fill="#0a0a0f"/>
  <!-- barcode bars -->
  <rect x="8"  y="12" width="3"  height="28" fill="#00e5a0"/>
  <rect x="13" y="12" width="5"  height="28" fill="#00e5a0"/>
  <rect x="20" y="12" width="2"  height="28" fill="#00e5a0"/>
  <rect x="24" y="12" width="4"  height="28" fill="#00e5a0"/>
  <rect x="30" y="12" width="2"  height="28" fill="#00e5a0"/>
  <rect x="34" y="12" width="5"  height="28" fill="#00e5a0"/>
  <rect x="41" y="12" width="3"  height="28" fill="#00e5a0"/>
  <rect x="46" y="12" width="2"  height="28" fill="#00e5a0"/>
  <rect x="50" y="12" width="6"  height="28" fill="#00e5a0"/>
  <!-- scan line -->
  <rect x="6" y="24" width="52" height="2" fill="#ffffff" opacity="0.4"/>
  <!-- keyboard row -->
  <rect x="8"  y="46" width="7" height="7" rx="2" fill="#1e1e2e" stroke="#00e5a0" stroke-width="1"/>
  <rect x="18" y="46" width="7" height="7" rx="2" fill="#1e1e2e" stroke="#00e5a0" stroke-width="1"/>
  <rect x="28" y="46" width="7" height="7" rx="2" fill="#1e1e2e" stroke="#00e5a0" stroke-width="1"/>
  <rect x="38" y="46" width="7" height="7" rx="2" fill="#1e1e2e" stroke="#00e5a0" stroke-width="1"/>
  <rect x="48" y="46" width="7" height="7" rx="2" fill="#00e5a0"/>
</svg>
